<?xml version="1.0" encoding="utf-8"?>
<svg xmlns="http://www.w3.org/2000/svg" width="170" height="170" class="segno"><path transform="scale(10)" class="qrline" stroke="#000" d="M2 2.5h7m1 0h1m1 0h1m1 0h1m-13 1h1m5 0h1m4 0h2m-13 1h1m1 0h3m1 0h1m1 0h1m3 0h1m-13 1h1m1 0h3m1 0h1m1 0h1m1 0h1m1 0h1m-13 1h1m1 0h3m1 0h1m1 0h1m1 0h1m1 0h1m-13 1h1m5 0h1m3 0h1m-11 1h7m1 0h5m-4 1h1m1 0h2m-13 1h2m1 0h1m1 0h1m1 0h5m-11 1h1m1 0h1m1 0h3m3 0h2m-13 1h1m2 0h3m1 0h1m2 0h1m1 0h1m-12 1h1m3 0h1m1 0h3m1 0h1m-12 1h8m2 0h1m1 0h1"/></svg>
